<svg viewBox="0 0 305 302" xmlns="http://www.w3.org/2000/svg" xmlns:xlink="http://www.w3.org/1999/xlink" width="305.000000" height="302.000000" fill="none" customFrame="#000000">
	<g id="comp_foreground_primary">
		<rect id="comp_foreground_primary" width="192.000000" height="192.000000" x="0.000000" y="0.000000" rx="16.000000" fill="rgb(0,0,0)" />
		<path id="" d="M7.3418 240.311C8.90625 240.311 10.3945 239.713 11.5664 238.658L10.6055 237.193C9.79102 237.938 8.73633 238.488 7.53516 238.488C5.13867 238.488 3.50391 236.496 3.50391 233.496C3.50391 230.496 5.23242 228.457 7.60547 228.457C8.64258 228.457 9.43359 228.938 10.2012 229.605L11.3262 228.17C10.3945 227.35 9.2168 226.635 7.51172 226.635C4.17773 226.635 1.22461 229.154 1.22461 233.496C1.22461 237.814 3.89062 240.311 7.3418 240.311ZM18.9115 240.311C22.1048 240.311 24.9584 237.814 24.9584 233.496C24.9584 229.154 22.1048 226.635 18.9115 226.635C15.7181 226.635 12.8646 229.154 12.8646 233.496C12.8646 237.814 15.7181 240.311 18.9115 240.311ZM18.9115 238.488C16.6556 238.488 15.1439 236.496 15.1439 233.496C15.1439 230.496 16.6556 228.457 18.9115 228.457C21.1673 228.457 22.7025 230.496 22.7025 233.496C22.7025 236.496 21.1673 238.488 18.9115 238.488ZM28.393 240L30.5785 240L30.5785 230.543C31.7738 229.201 32.8813 228.551 33.8656 228.551C35.518 228.551 36.2856 229.582 36.2856 232.031L36.2856 240L38.4711 240L38.4711 230.543C39.6957 229.201 40.7504 228.551 41.7582 228.551C43.4164 228.551 44.184 229.582 44.184 232.031L44.184 240L46.3695 240L46.3695 231.744C46.3695 228.41 45.0981 226.635 42.4086 226.635C40.8266 226.635 39.4555 227.666 38.1137 229.131C37.5863 227.59 36.5024 226.635 34.5102 226.635C32.9516 226.635 31.5863 227.613 30.4555 228.861L30.3852 228.861L30.1918 226.969L28.393 226.969L28.393 240ZM50.617 245.496L52.8025 245.496L52.8025 241.078L52.7498 238.799C53.9275 239.76 55.1756 240.311 56.3533 240.311C59.3533 240.311 62.0135 237.744 62.0135 233.279C62.0135 229.271 60.1912 226.635 56.8338 226.635C55.3221 226.635 53.8572 227.496 52.6795 228.457L52.6092 228.457L52.4158 226.969L50.617 226.969L50.617 245.496ZM55.99 238.488C55.1287 238.488 53.9744 238.131 52.8025 237.117L52.8025 230.279C54.074 229.102 55.199 228.48 56.3064 228.48C58.7732 228.48 59.7342 230.426 59.7342 233.303C59.7342 236.543 58.1521 238.488 55.99 238.488ZM63.5985 243.357L76.3661 243.357L76.3661 241.898L63.5985 241.898L63.5985 243.357ZM79.2704 240L81.456 240L81.456 228.744L84.2157 228.744L84.2157 226.969L81.456 226.969L81.456 224.906C81.456 223.225 82.0536 222.334 83.3017 222.334C83.7587 222.334 84.286 222.457 84.7665 222.674L85.247 221.016C84.6493 220.752 83.8583 220.582 83.0614 220.582C80.4716 220.582 79.2704 222.24 79.2704 224.883L79.2704 226.969L77.495 227.086L77.495 228.744L79.2704 228.744L79.2704 240ZM91.5115 240.311C94.7048 240.311 97.5584 237.814 97.5584 233.496C97.5584 229.154 94.7048 226.635 91.5115 226.635C88.3181 226.635 85.4646 229.154 85.4646 233.496C85.4646 237.814 88.3181 240.311 91.5115 240.311ZM91.5115 238.488C89.2556 238.488 87.7439 236.496 87.7439 233.496C87.7439 230.496 89.2556 228.457 91.5115 228.457C93.7673 228.457 95.3025 230.496 95.3025 233.496C95.3025 236.496 93.7673 238.488 91.5115 238.488ZM100.993 240L103.179 240L103.179 231.621C104.04 229.395 105.382 228.621 106.466 228.621C106.993 228.621 107.304 228.674 107.737 228.838L108.141 226.922C107.737 226.705 107.327 226.635 106.753 226.635C105.288 226.635 103.97 227.689 103.055 229.342L102.985 229.342L102.792 226.969L100.993 226.969L100.993 240ZM115.297 240.311C117.072 240.311 118.467 239.713 119.615 238.969L118.824 237.527C117.863 238.178 116.832 238.559 115.561 238.559C113.088 238.559 111.383 236.783 111.242 234L120.025 234C120.072 233.689 120.119 233.232 120.119 232.752C120.119 229.031 118.25 226.635 114.934 226.635C111.91 226.635 109.057 229.271 109.057 233.496C109.057 237.791 111.84 240.311 115.297 240.311ZM111.219 232.418C111.482 229.869 113.111 228.387 114.963 228.387C117.002 228.387 118.197 229.799 118.197 232.418L111.219 232.418ZM127.462 246C131.499 246 134.065 243.914 134.065 241.488C134.065 239.35 132.53 238.395 129.507 238.395L126.958 238.395C125.206 238.395 124.678 237.814 124.678 236.977C124.678 236.256 125.042 235.822 125.522 235.418C126.096 235.705 126.817 235.869 127.462 235.869C130.104 235.869 132.214 234.117 132.214 231.334C132.214 230.209 131.786 229.248 131.159 228.65L133.825 228.65L133.825 226.969L129.29 226.969C128.833 226.799 128.182 226.635 127.462 226.635C124.825 226.635 122.569 228.434 122.569 231.287C122.569 232.846 123.407 234.094 124.274 234.791L124.274 234.891C123.6 235.365 122.809 236.232 122.809 237.311C122.809 238.342 123.313 239.039 124.01 239.449L124.01 239.543C122.786 240.334 122.089 241.395 122.089 242.496C122.089 244.752 124.274 246 127.462 246ZM127.462 234.387C125.95 234.387 124.678 233.186 124.678 231.287C124.678 229.365 125.926 228.24 127.462 228.24C129.003 228.24 130.251 229.395 130.251 231.287C130.251 233.186 128.95 234.387 127.462 234.387ZM127.778 244.512C125.423 244.512 124.01 243.598 124.01 242.209C124.01 241.441 124.391 240.674 125.329 240C125.903 240.146 126.53 240.217 127.01 240.217L129.266 240.217C130.995 240.217 131.926 240.621 131.926 241.822C131.926 243.193 130.274 244.512 127.778 244.512ZM136.585 240L138.771 240L138.771 231.621C139.632 229.395 140.974 228.621 142.058 228.621C142.585 228.621 142.896 228.674 143.329 228.838L143.733 226.922C143.329 226.705 142.919 226.635 142.345 226.635C140.88 226.635 139.562 227.689 138.647 229.342L138.577 229.342L138.384 226.969L136.585 226.969L136.585 240ZM150.695 240.311C153.889 240.311 156.742 237.814 156.742 233.496C156.742 229.154 153.889 226.635 150.695 226.635C147.502 226.635 144.649 229.154 144.649 233.496C144.649 237.814 147.502 240.311 150.695 240.311ZM150.695 238.488C148.44 238.488 146.928 236.496 146.928 233.496C146.928 230.496 148.44 228.457 150.695 228.457C152.951 228.457 154.486 230.496 154.486 233.496C154.486 236.496 152.951 238.488 150.695 238.488ZM163.968 240.311C165.767 240.311 167.062 239.379 168.286 237.961L168.363 237.961L168.527 240L170.355 240L170.355 226.969L168.169 226.969L168.169 236.209C166.921 237.768 165.984 238.418 164.642 238.418C162.913 238.418 162.193 237.387 162.193 234.961L162.193 226.969L160.007 226.969L160.007 235.225C160.007 238.535 161.232 240.311 163.968 240.311ZM174.745 240L176.931 240L176.931 230.543C178.249 229.225 179.157 228.551 180.505 228.551C182.233 228.551 182.977 229.582 182.977 232.031L182.977 240L185.157 240L185.157 231.744C185.157 228.41 183.915 226.635 181.179 226.635C179.397 226.635 178.056 227.613 176.807 228.838L176.737 228.838L176.544 226.969L174.745 226.969L174.745 240ZM193.85 240.311C195.409 240.311 196.774 239.473 197.805 238.465L197.882 238.465L198.069 240L199.85 240L199.85 220.898L197.688 220.898L197.688 225.914L197.782 228.17C196.634 227.209 195.649 226.635 194.114 226.635C191.137 226.635 188.471 229.271 188.471 233.496C188.471 237.838 190.587 240.311 193.85 240.311ZM194.331 238.488C192.022 238.488 190.727 236.613 190.727 233.473C190.727 230.496 192.386 228.48 194.495 228.48C195.579 228.48 196.557 228.861 197.688 229.846L197.688 236.689C196.587 237.891 195.526 238.488 194.331 238.488ZM202.391 243.357L215.158 243.357L215.158 241.898L202.391 241.898L202.391 243.357ZM217.705 245.496L219.891 245.496L219.891 241.078L219.838 238.799C221.016 239.76 222.264 240.311 223.441 240.311C226.441 240.311 229.101 237.744 229.101 233.279C229.101 229.271 227.279 226.635 223.922 226.635C222.41 226.635 220.945 227.496 219.767 228.457L219.697 228.457L219.504 226.969L217.705 226.969L217.705 245.496ZM223.078 238.488C222.217 238.488 221.062 238.131 219.891 237.117L219.891 230.279C221.162 229.102 222.287 228.48 223.394 228.48C225.861 228.48 226.822 230.426 226.822 233.303C226.822 236.543 225.24 238.488 223.078 238.488ZM232.585 240L234.771 240L234.771 231.621C235.632 229.395 236.974 228.621 238.058 228.621C238.585 228.621 238.896 228.674 239.329 228.838L239.733 226.922C239.329 226.705 238.919 226.635 238.345 226.635C236.88 226.635 235.562 227.689 234.647 229.342L234.577 229.342L234.384 226.969L232.585 226.969L232.585 240ZM241.897 240L244.083 240L244.083 226.969L241.897 226.969L241.897 240ZM242.999 224.279C243.866 224.279 244.463 223.705 244.463 222.814C244.463 221.977 243.866 221.402 242.999 221.402C242.137 221.402 241.534 221.977 241.534 222.814C241.534 223.705 242.137 224.279 242.999 224.279ZM248.497 240L250.683 240L250.683 230.543C251.878 229.201 252.985 228.551 253.97 228.551C255.622 228.551 256.39 229.582 256.39 232.031L256.39 240L258.575 240L258.575 230.543C259.8 229.201 260.854 228.551 261.862 228.551C263.52 228.551 264.288 229.582 264.288 232.031L264.288 240L266.474 240L266.474 231.744C266.474 228.41 265.202 226.635 262.513 226.635C260.931 226.635 259.56 227.666 258.218 229.131C257.69 227.59 256.606 226.635 254.614 226.635C253.056 226.635 251.69 227.613 250.559 228.861L250.489 228.861L250.296 226.969L248.497 226.969L248.497 240ZM273.721 240.311C275.326 240.311 276.791 239.473 278.039 238.441L278.11 238.441L278.303 240L280.102 240L280.102 231.984C280.102 228.768 278.76 226.635 275.59 226.635C273.504 226.635 271.659 227.566 270.457 228.334L271.319 229.846C272.35 229.154 273.721 228.457 275.233 228.457C277.366 228.457 277.922 230.062 277.922 231.744C272.373 232.365 269.907 233.783 269.907 236.613C269.907 238.969 271.535 240.311 273.721 240.311ZM274.342 238.559C273.047 238.559 272.039 237.961 272.039 236.473C272.039 234.791 273.528 233.713 277.922 233.186L277.922 236.83C276.651 237.961 275.614 238.559 274.342 238.559ZM284.257 240L286.443 240L286.443 231.621C287.304 229.395 288.646 228.621 289.73 228.621C290.257 228.621 290.568 228.674 291.001 228.838L291.405 226.922C291.001 226.705 290.591 226.635 290.017 226.635C288.552 226.635 287.234 227.689 286.32 229.342L286.249 229.342L286.056 226.969L284.257 226.969L284.257 240ZM294.482 245.613C297.072 245.613 298.443 243.65 299.328 241.078L304.249 226.969L302.111 226.969L299.785 234.217C299.421 235.365 299.04 236.689 298.677 237.861L298.56 237.861C298.15 236.689 297.699 235.342 297.312 234.217L294.646 226.969L292.367 226.969L297.599 240.023L297.312 241.008C296.785 242.613 295.847 243.814 294.359 243.814C294.025 243.814 293.638 243.697 293.374 243.598L292.947 245.35C293.351 245.52 293.855 245.613 294.482 245.613Z" fill="rgb(0,0,0)" fill-opacity="0.498039216" fill-rule="nonzero" />
		<path id="" d="M2.42578 295L3.83789 295L4.51172 289.527L8.0625 289.527L7.41797 295L8.85352 295L9.50391 289.527L11.9766 289.527L11.9766 287.992L9.69727 287.992L10.2012 284.008L12.5273 284.008L12.5273 282.496L10.3652 282.496L10.9922 277.551L9.57422 277.551L8.92969 282.496L5.37891 282.496L5.97656 277.551L4.55859 277.551L3.9375 282.496L1.48828 282.496L1.48828 284.008L3.76758 284.008L3.26367 287.992L0.960938 287.992L0.960938 289.527L3.07031 289.527L2.42578 295ZM4.70508 287.992L5.18555 284.008L8.75977 284.008L8.25586 287.992L4.70508 287.992ZM19.9938 295.311C23.3278 295.311 25.4665 292.264 25.4665 286.146C25.4665 280.047 23.3278 277.07 19.9938 277.07C16.6305 277.07 14.4977 280.023 14.4977 286.146C14.4977 292.264 16.6305 295.311 19.9938 295.311ZM19.9938 293.559C17.9782 293.559 16.6305 291.326 16.6305 286.146C16.6305 281.008 17.9782 278.822 19.9938 278.822C21.986 278.822 23.3278 281.008 23.3278 286.146C23.3278 291.326 21.986 293.559 19.9938 293.559ZM33.3138 295.311C36.6478 295.311 38.7865 292.264 38.7865 286.146C38.7865 280.047 36.6478 277.07 33.3138 277.07C29.9505 277.07 27.8177 280.023 27.8177 286.146C27.8177 292.264 29.9505 295.311 33.3138 295.311ZM33.3138 293.559C31.2982 293.559 29.9505 291.326 29.9505 286.146C29.9505 281.008 31.2982 278.822 33.3138 278.822C35.306 278.822 36.6478 281.008 36.6478 286.146C36.6478 291.326 35.306 293.559 33.3138 293.559ZM46.6338 295.311C49.9678 295.311 52.1065 292.264 52.1065 286.146C52.1065 280.047 49.9678 277.07 46.6338 277.07C43.2705 277.07 41.1377 280.023 41.1377 286.146C41.1377 292.264 43.2705 295.311 46.6338 295.311ZM46.6338 293.559C44.6182 293.559 43.2705 291.326 43.2705 286.146C43.2705 281.008 44.6182 278.822 46.6338 278.822C48.626 278.822 49.9678 281.008 49.9678 286.146C49.9678 291.326 48.626 293.559 46.6338 293.559ZM59.9538 295.311C63.2878 295.311 65.4265 292.264 65.4265 286.146C65.4265 280.047 63.2878 277.07 59.9538 277.07C56.5905 277.07 54.4577 280.023 54.4577 286.146C54.4577 292.264 56.5905 295.311 59.9538 295.311ZM59.9538 293.559C57.9382 293.559 56.5905 291.326 56.5905 286.146C56.5905 281.008 57.9382 278.822 59.9538 278.822C61.946 278.822 63.2878 281.008 63.2878 286.146C63.2878 291.326 61.946 293.559 59.9538 293.559ZM73.2738 295.311C76.6078 295.311 78.7465 292.264 78.7465 286.146C78.7465 280.047 76.6078 277.07 73.2738 277.07C69.9105 277.07 67.7777 280.023 67.7777 286.146C67.7777 292.264 69.9105 295.311 73.2738 295.311ZM73.2738 293.559C71.2582 293.559 69.9105 291.326 69.9105 286.146C69.9105 281.008 71.2582 278.822 73.2738 278.822C75.266 278.822 76.6078 281.008 76.6078 286.146C76.6078 291.326 75.266 293.559 73.2738 293.559ZM86.5938 295.311C89.9278 295.311 92.0665 292.264 92.0665 286.146C92.0665 280.047 89.9278 277.07 86.5938 277.07C83.2305 277.07 81.0977 280.023 81.0977 286.146C81.0977 292.264 83.2305 295.311 86.5938 295.311ZM86.5938 293.559C84.5782 293.559 83.2305 291.326 83.2305 286.146C83.2305 281.008 84.5782 278.822 86.5938 278.822C88.586 278.822 89.9278 281.008 89.9278 286.146C89.9278 291.326 88.586 293.559 86.5938 293.559ZM100.725 295L110.376 295L110.376 293.178L106.848 293.178L106.848 277.387L105.167 277.387C104.206 277.961 103.081 278.365 101.522 278.658L101.522 280.047L104.639 280.047L104.639 293.178L100.725 293.178L100.725 295ZM118.61 295.311C121.944 295.311 124.082 292.264 124.082 286.146C124.082 280.047 121.944 277.07 118.61 277.07C115.247 277.07 113.114 280.023 113.114 286.146C113.114 292.264 115.247 295.311 118.61 295.311ZM118.61 293.559C116.594 293.559 115.247 291.326 115.247 286.146C115.247 281.008 116.594 278.822 118.61 278.822C120.602 278.822 121.944 281.008 121.944 286.146C121.944 291.326 120.602 293.559 118.61 293.559ZM131.93 295.311C135.264 295.311 137.402 292.264 137.402 286.146C137.402 280.047 135.264 277.07 131.93 277.07C128.567 277.07 126.434 280.023 126.434 286.146C126.434 292.264 128.567 295.311 131.93 295.311ZM131.93 293.559C129.914 293.559 128.567 291.326 128.567 286.146C128.567 281.008 129.914 278.822 131.93 278.822C133.922 278.822 135.264 281.008 135.264 286.146C135.264 291.326 133.922 293.559 131.93 293.559ZM143.498 288.186C145.918 288.186 147.506 286.146 147.506 282.59C147.506 279.062 145.918 277.07 143.498 277.07C141.096 277.07 139.513 279.062 139.513 282.59C139.513 286.146 141.096 288.186 143.498 288.186ZM143.498 286.814C142.127 286.814 141.166 285.402 141.166 282.59C141.166 279.783 142.127 278.418 143.498 278.418C144.887 278.418 145.847 279.783 145.847 282.59C145.847 285.402 144.887 286.814 143.498 286.814ZM144.025 295.311L145.49 295.311L155.211 277.07L153.722 277.07L144.025 295.311ZM155.762 295.311C158.158 295.311 159.746 293.295 159.746 289.744C159.746 286.217 158.158 284.225 155.762 284.225C153.359 284.225 151.754 286.217 151.754 289.744C151.754 293.295 153.359 295.311 155.762 295.311ZM155.762 293.969C154.367 293.969 153.43 292.551 153.43 289.744C153.43 286.938 154.367 285.566 155.762 285.566C157.127 285.566 158.088 286.938 158.088 289.744C158.088 292.551 157.127 293.969 155.762 293.969Z" fill="rgb(0,0,0)" fill-opacity="0.498039216" fill-rule="nonzero" />
	</g>
</svg>
