<svg viewBox="0 0 221 302" xmlns="http://www.w3.org/2000/svg" xmlns:xlink="http://www.w3.org/1999/xlink" width="221.000000" height="302.000000" fill="none" customFrame="#000000">
	<g id="interactive_pressed">
		<rect id="interactive_pressed" width="192.000000" height="192.000000" x="0.000000" y="0.000000" rx="16.000000" fill="rgb(0,0,0)" fill-opacity="0.0980392173" />
		<path id="" d="M2.20898 240L4.39453 240L4.39453 226.969L2.20898 226.969L2.20898 240ZM3.31055 224.279C4.17773 224.279 4.77539 223.705 4.77539 222.814C4.77539 221.977 4.17773 221.402 3.31055 221.402C2.44922 221.402 1.8457 221.977 1.8457 222.814C1.8457 223.705 2.44922 224.279 3.31055 224.279ZM8.80898 240L10.9945 240L10.9945 230.543C12.3129 229.225 13.2211 228.551 14.5688 228.551C16.2973 228.551 17.0414 229.582 17.0414 232.031L17.0414 240L19.2211 240L19.2211 231.744C19.2211 228.41 17.9789 226.635 15.2426 226.635C13.4613 226.635 12.1195 227.613 10.8715 228.838L10.8012 228.838L10.6078 226.969L8.80898 226.969L8.80898 240ZM27.5745 240.311C28.3656 240.311 29.2327 240.07 29.9769 239.83L29.5433 238.201C29.1097 238.365 28.512 238.535 28.055 238.535C26.5433 238.535 26.0394 237.621 26.0394 236.016L26.0394 228.744L29.5667 228.744L29.5667 226.969L26.0394 226.969L26.0394 223.295L24.2171 223.295L23.9535 226.969L21.9144 227.086L21.9144 228.744L23.8538 228.744L23.8538 235.969C23.8538 238.559 24.7913 240.311 27.5745 240.311ZM37.4168 240.311C39.1922 240.311 40.5868 239.713 41.7352 238.969L40.9442 237.527C39.9832 238.178 38.952 238.559 37.6805 238.559C35.2079 238.559 33.5028 236.783 33.3622 234L42.1454 234C42.1922 233.689 42.2391 233.232 42.2391 232.752C42.2391 229.031 40.37 226.635 37.0536 226.635C34.0301 226.635 31.1766 229.271 31.1766 233.496C31.1766 237.791 33.9598 240.311 37.4168 240.311ZM33.3387 232.418C33.6024 229.869 35.2313 228.387 37.0829 228.387C39.1219 228.387 40.3172 229.799 40.3172 232.418L33.3387 232.418ZM45.457 240L47.6425 240L47.6425 231.621C48.5039 229.395 49.8457 228.621 50.9296 228.621C51.457 228.621 51.7675 228.674 52.2011 228.838L52.6054 226.922C52.2011 226.705 51.791 226.635 51.2168 226.635C49.7519 226.635 48.4335 227.689 47.5195 229.342L47.4492 229.342L47.2558 226.969L45.457 226.969L45.457 240ZM57.121 240.311C58.7265 240.311 60.1913 239.473 61.4393 238.441L61.5097 238.441L61.703 240L63.5018 240L63.5018 231.984C63.5018 228.768 62.16 226.635 58.9901 226.635C56.9042 226.635 55.0585 227.566 53.8573 228.334L54.7186 229.846C55.7499 229.154 57.121 228.457 58.6327 228.457C60.7655 228.457 61.3222 230.062 61.3222 231.744C55.7733 232.365 53.3065 233.783 53.3065 236.613C53.3065 238.969 54.9354 240.311 57.121 240.311ZM57.7421 238.559C56.4472 238.559 55.4393 237.961 55.4393 236.473C55.4393 234.791 56.9276 233.713 61.3222 233.186L61.3222 236.83C60.0507 237.961 59.0136 238.559 57.7421 238.559ZM72.7898 240.311C74.3543 240.311 75.8425 239.713 77.0144 238.658L76.0535 237.193C75.239 237.938 74.1843 238.488 72.9832 238.488C70.5867 238.488 68.9519 236.496 68.9519 233.496C68.9519 230.496 70.6804 228.457 73.0535 228.457C74.0906 228.457 74.8816 228.938 75.6492 229.605L76.7742 228.17C75.8425 227.35 74.6648 226.635 72.9597 226.635C69.6257 226.635 66.6726 229.154 66.6726 233.496C66.6726 237.814 69.3386 240.311 72.7898 240.311ZM83.7106 240.311C84.5016 240.311 85.3688 240.07 86.1129 239.83L85.6793 238.201C85.2457 238.365 84.6481 238.535 84.191 238.535C82.6793 238.535 82.1754 237.621 82.1754 236.016L82.1754 228.744L85.7027 228.744L85.7027 226.969L82.1754 226.969L82.1754 223.295L80.3531 223.295L80.0895 226.969L78.0504 227.086L78.0504 228.744L79.9899 228.744L79.9899 235.969C79.9899 238.559 80.9274 240.311 83.7106 240.311ZM88.657 240L90.8425 240L90.8425 226.969L88.657 226.969L88.657 240ZM89.7586 224.279C90.6257 224.279 91.2234 223.705 91.2234 222.814C91.2234 221.977 90.6257 221.402 89.7586 221.402C88.8972 221.402 88.2937 221.977 88.2937 222.814C88.2937 223.705 88.8972 224.279 89.7586 224.279ZM98.0636 240L100.607 240L105.241 226.969L103.079 226.969L100.607 234.387C100.226 235.658 99.8156 237 99.4054 238.225L99.3117 238.225C98.9015 237 98.4972 235.658 98.0871 234.387L95.6379 226.969L93.3586 226.969L98.0636 240ZM112.921 240.311C114.696 240.311 116.091 239.713 117.239 238.969L116.448 237.527C115.487 238.178 114.456 238.559 113.185 238.559C110.712 238.559 109.007 236.783 108.866 234L117.649 234C117.696 233.689 117.743 233.232 117.743 232.752C117.743 229.031 115.874 226.635 112.558 226.635C109.534 226.635 106.681 229.271 106.681 233.496C106.681 237.791 109.464 240.311 112.921 240.311ZM108.843 232.418C109.106 229.869 110.735 228.387 112.587 228.387C114.626 228.387 115.821 229.799 115.821 232.418L108.843 232.418ZM119.063 243.357L131.83 243.357L131.83 241.898L119.063 241.898L119.063 243.357ZM134.377 245.496L136.563 245.496L136.563 241.078L136.51 238.799C137.688 239.76 138.936 240.311 140.113 240.311C143.113 240.311 145.773 237.744 145.773 233.279C145.773 229.271 143.951 226.635 140.594 226.635C139.082 226.635 137.617 227.496 136.439 228.457L136.369 228.457L136.176 226.969L134.377 226.969L134.377 245.496ZM139.75 238.488C138.889 238.488 137.734 238.131 136.563 237.117L136.563 230.279C137.834 229.102 138.959 228.48 140.066 228.48C142.533 228.48 143.494 230.426 143.494 233.303C143.494 236.543 141.912 238.488 139.75 238.488ZM149.257 240L151.443 240L151.443 231.621C152.304 229.395 153.646 228.621 154.73 228.621C155.257 228.621 155.568 228.674 156.001 228.838L156.405 226.922C156.001 226.705 155.591 226.635 155.017 226.635C153.552 226.635 152.234 227.689 151.319 229.342L151.249 229.342L151.056 226.969L149.257 226.969L149.257 240ZM163.561 240.311C165.336 240.311 166.731 239.713 167.879 238.969L167.088 237.527C166.127 238.178 165.096 238.559 163.825 238.559C161.352 238.559 159.647 236.783 159.506 234L168.289 234C168.336 233.689 168.383 233.232 168.383 232.752C168.383 229.031 166.514 226.635 163.198 226.635C160.174 226.635 157.321 229.271 157.321 233.496C157.321 237.791 160.104 240.311 163.561 240.311ZM159.483 232.418C159.746 229.869 161.375 228.387 163.227 228.387C165.266 228.387 166.461 229.799 166.461 232.418L159.483 232.418ZM175.005 240.311C178.081 240.311 179.757 238.559 179.757 236.449C179.757 233.977 177.671 233.209 175.779 232.488C174.314 231.938 172.966 231.48 172.966 230.232C172.966 229.225 173.734 228.357 175.392 228.357C176.546 228.357 177.455 228.838 178.345 229.512L179.4 228.094C178.392 227.303 176.974 226.635 175.369 226.635C172.538 226.635 170.857 228.264 170.857 230.326C170.857 232.535 172.849 233.426 174.671 234.094C176.113 234.65 177.648 235.225 177.648 236.566C177.648 237.697 176.81 238.605 175.081 238.605C173.523 238.605 172.345 237.984 171.214 237.07L170.136 238.512C171.384 239.543 173.16 240.311 175.005 240.311ZM186.237 240.311C189.313 240.311 190.989 238.559 190.989 236.449C190.989 233.977 188.903 233.209 187.011 232.488C185.546 231.938 184.198 231.48 184.198 230.232C184.198 229.225 184.966 228.357 186.624 228.357C187.778 228.357 188.687 228.838 189.577 229.512L190.632 228.094C189.624 227.303 188.206 226.635 186.601 226.635C183.77 226.635 182.089 228.264 182.089 230.326C182.089 232.535 184.081 233.426 185.903 234.094C187.345 234.65 188.88 235.225 188.88 236.566C188.88 237.697 188.042 238.605 186.313 238.605C184.755 238.605 183.577 237.984 182.446 237.07L181.368 238.512C182.616 239.543 184.392 240.311 186.237 240.311ZM199.321 240.311C201.096 240.311 202.491 239.713 203.639 238.969L202.848 237.527C201.887 238.178 200.856 238.559 199.585 238.559C197.112 238.559 195.407 236.783 195.266 234L204.049 234C204.096 233.689 204.143 233.232 204.143 232.752C204.143 229.031 202.274 226.635 198.958 226.635C195.934 226.635 193.081 229.271 193.081 233.496C193.081 237.791 195.864 240.311 199.321 240.311ZM195.243 232.418C195.506 229.869 197.135 228.387 198.987 228.387C201.026 228.387 202.221 229.799 202.221 232.418L195.243 232.418ZM211.802 240.311C213.361 240.311 214.726 239.473 215.757 238.465L215.834 238.465L216.021 240L217.802 240L217.802 220.898L215.64 220.898L215.64 225.914L215.734 228.17C214.586 227.209 213.601 226.635 212.066 226.635C209.09 226.635 206.423 229.271 206.423 233.496C206.423 237.838 208.539 240.311 211.802 240.311ZM212.283 238.488C209.974 238.488 208.679 236.613 208.679 233.473C208.679 230.496 210.338 228.48 212.447 228.48C213.531 228.48 214.509 228.861 215.64 229.846L215.64 236.689C214.539 237.891 213.478 238.488 212.283 238.488Z" fill="rgb(0,0,0)" fill-opacity="0.498039216" fill-rule="nonzero" />
		<path id="" d="M2.42578 295L3.83789 295L4.51172 289.527L8.0625 289.527L7.41797 295L8.85352 295L9.50391 289.527L11.9766 289.527L11.9766 287.992L9.69727 287.992L10.2012 284.008L12.5273 284.008L12.5273 282.496L10.3652 282.496L10.9922 277.551L9.57422 277.551L8.92969 282.496L5.37891 282.496L5.97656 277.551L4.55859 277.551L3.9375 282.496L1.48828 282.496L1.48828 284.008L3.76758 284.008L3.26367 287.992L0.960938 287.992L0.960938 289.527L3.07031 289.527L2.42578 295ZM4.70508 287.992L5.18555 284.008L8.75977 284.008L8.25586 287.992L4.70508 287.992ZM19.9938 295.311C23.3278 295.311 25.4665 292.264 25.4665 286.146C25.4665 280.047 23.3278 277.07 19.9938 277.07C16.6305 277.07 14.4977 280.023 14.4977 286.146C14.4977 292.264 16.6305 295.311 19.9938 295.311ZM19.9938 293.559C17.9782 293.559 16.6305 291.326 16.6305 286.146C16.6305 281.008 17.9782 278.822 19.9938 278.822C21.986 278.822 23.3278 281.008 23.3278 286.146C23.3278 291.326 21.986 293.559 19.9938 293.559ZM33.3138 295.311C36.6478 295.311 38.7865 292.264 38.7865 286.146C38.7865 280.047 36.6478 277.07 33.3138 277.07C29.9505 277.07 27.8177 280.023 27.8177 286.146C27.8177 292.264 29.9505 295.311 33.3138 295.311ZM33.3138 293.559C31.2982 293.559 29.9505 291.326 29.9505 286.146C29.9505 281.008 31.2982 278.822 33.3138 278.822C35.306 278.822 36.6478 281.008 36.6478 286.146C36.6478 291.326 35.306 293.559 33.3138 293.559ZM46.6338 295.311C49.9678 295.311 52.1065 292.264 52.1065 286.146C52.1065 280.047 49.9678 277.07 46.6338 277.07C43.2705 277.07 41.1377 280.023 41.1377 286.146C41.1377 292.264 43.2705 295.311 46.6338 295.311ZM46.6338 293.559C44.6182 293.559 43.2705 291.326 43.2705 286.146C43.2705 281.008 44.6182 278.822 46.6338 278.822C48.626 278.822 49.9678 281.008 49.9678 286.146C49.9678 291.326 48.626 293.559 46.6338 293.559ZM59.9538 295.311C63.2878 295.311 65.4265 292.264 65.4265 286.146C65.4265 280.047 63.2878 277.07 59.9538 277.07C56.5905 277.07 54.4577 280.023 54.4577 286.146C54.4577 292.264 56.5905 295.311 59.9538 295.311ZM59.9538 293.559C57.9382 293.559 56.5905 291.326 56.5905 286.146C56.5905 281.008 57.9382 278.822 59.9538 278.822C61.946 278.822 63.2878 281.008 63.2878 286.146C63.2878 291.326 61.946 293.559 59.9538 293.559ZM73.2738 295.311C76.6078 295.311 78.7465 292.264 78.7465 286.146C78.7465 280.047 76.6078 277.07 73.2738 277.07C69.9105 277.07 67.7777 280.023 67.7777 286.146C67.7777 292.264 69.9105 295.311 73.2738 295.311ZM73.2738 293.559C71.2582 293.559 69.9105 291.326 69.9105 286.146C69.9105 281.008 71.2582 278.822 73.2738 278.822C75.266 278.822 76.6078 281.008 76.6078 286.146C76.6078 291.326 75.266 293.559 73.2738 293.559ZM86.5938 295.311C89.9278 295.311 92.0665 292.264 92.0665 286.146C92.0665 280.047 89.9278 277.07 86.5938 277.07C83.2305 277.07 81.0977 280.023 81.0977 286.146C81.0977 292.264 83.2305 295.311 86.5938 295.311ZM86.5938 293.559C84.5782 293.559 83.2305 291.326 83.2305 286.146C83.2305 281.008 84.5782 278.822 86.5938 278.822C88.586 278.822 89.9278 281.008 89.9278 286.146C89.9278 291.326 88.586 293.559 86.5938 293.559ZM100.725 295L110.376 295L110.376 293.178L106.848 293.178L106.848 277.387L105.167 277.387C104.206 277.961 103.081 278.365 101.522 278.658L101.522 280.047L104.639 280.047L104.639 293.178L100.725 293.178L100.725 295ZM118.61 295.311C121.944 295.311 124.082 292.264 124.082 286.146C124.082 280.047 121.944 277.07 118.61 277.07C115.247 277.07 113.114 280.023 113.114 286.146C113.114 292.264 115.247 295.311 118.61 295.311ZM118.61 293.559C116.594 293.559 115.247 291.326 115.247 286.146C115.247 281.008 116.594 278.822 118.61 278.822C120.602 278.822 121.944 281.008 121.944 286.146C121.944 291.326 120.602 293.559 118.61 293.559ZM130.178 288.186C132.598 288.186 134.186 286.146 134.186 282.59C134.186 279.062 132.598 277.07 130.178 277.07C127.776 277.07 126.193 279.062 126.193 282.59C126.193 286.146 127.776 288.186 130.178 288.186ZM130.178 286.814C128.807 286.814 127.846 285.402 127.846 282.59C127.846 279.783 128.807 278.418 130.178 278.418C131.567 278.418 132.527 279.783 132.527 282.59C132.527 285.402 131.567 286.814 130.178 286.814ZM130.705 295.311L132.17 295.311L141.891 277.07L140.402 277.07L130.705 295.311ZM142.442 295.311C144.838 295.311 146.426 293.295 146.426 289.744C146.426 286.217 144.838 284.225 142.442 284.225C140.039 284.225 138.434 286.217 138.434 289.744C138.434 293.295 140.039 295.311 142.442 295.311ZM142.442 293.969C141.047 293.969 140.11 292.551 140.11 289.744C140.11 286.938 141.047 285.566 142.442 285.566C143.807 285.566 144.768 286.938 144.768 289.744C144.768 292.551 143.807 293.969 142.442 293.969Z" fill="rgb(0,0,0)" fill-opacity="0.498039216" fill-rule="nonzero" />
	</g>
</svg>
