<svg viewBox="0 0 192 302" xmlns="http://www.w3.org/2000/svg" xmlns:xlink="http://www.w3.org/1999/xlink" width="192.000000" height="302.000000" fill="none" customFrame="#000000">
	<g id="multi_color_02">
		<rect id="multi_color_02" width="192.000000" height="192.000000" x="0.000000" y="0.000000" rx="16.000000" fill="rgb(70,177,227)" />
		<path id="" d="M2.20898 240L4.39453 240L4.39453 230.543C5.58984 229.201 6.69727 228.551 7.68164 228.551C9.33398 228.551 10.1016 229.582 10.1016 232.031L10.1016 240L12.2871 240L12.2871 230.543C13.5117 229.201 14.5664 228.551 15.5742 228.551C17.2324 228.551 18 229.582 18 232.031L18 240L20.1855 240L20.1855 231.744C20.1855 228.41 18.9141 226.635 16.2246 226.635C14.6426 226.635 13.2715 227.666 11.9297 229.131C11.4023 227.59 10.3184 226.635 8.32617 226.635C6.76758 226.635 5.40234 227.613 4.27148 228.861L4.20117 228.861L4.00781 226.969L2.20898 226.969L2.20898 240ZM28.224 240.311C30.0228 240.311 31.3178 239.379 32.5424 237.961L32.6185 237.961L32.7826 240L34.6107 240L34.6107 226.969L32.4252 226.969L32.4252 236.209C31.1771 237.768 30.2396 238.418 28.8978 238.418C27.1693 238.418 26.4486 237.387 26.4486 234.961L26.4486 226.969L24.2631 226.969L24.2631 235.225C24.2631 238.535 25.4877 240.311 28.224 240.311ZM41.3037 240.311C41.9014 240.311 42.2647 240.24 42.5752 240.117L42.2647 238.441C42.0244 238.488 41.9307 238.488 41.8076 238.488C41.4736 238.488 41.1865 238.225 41.1865 237.551L41.1865 220.898L39.001 220.898L39.001 237.41C39.001 239.256 39.6748 240.311 41.3037 240.311ZM49.9425 240.311C50.7336 240.311 51.6007 240.07 52.3449 239.83L51.9113 238.201C51.4777 238.365 50.88 238.535 50.423 238.535C48.9113 238.535 48.4074 237.621 48.4074 236.016L48.4074 228.744L51.9347 228.744L51.9347 226.969L48.4074 226.969L48.4074 223.295L46.5851 223.295L46.3215 226.969L44.2824 227.086L44.2824 228.744L46.2218 228.744L46.2218 235.969C46.2218 238.559 47.1593 240.311 49.9425 240.311ZM54.889 240L57.0745 240L57.0745 226.969L54.889 226.969L54.889 240ZM55.9905 224.279C56.8577 224.279 57.4554 223.705 57.4554 222.814C57.4554 221.977 56.8577 221.402 55.9905 221.402C55.1292 221.402 54.5257 221.977 54.5257 222.814C54.5257 223.705 55.1292 224.279 55.9905 224.279ZM59.5905 243.357L72.3581 243.357L72.3581 241.898L59.5905 241.898L59.5905 243.357ZM80.0378 240.311C81.6022 240.311 83.0905 239.713 84.2624 238.658L83.3015 237.193C82.487 237.938 81.4323 238.488 80.2312 238.488C77.8347 238.488 76.1999 236.496 76.1999 233.496C76.1999 230.496 77.9284 228.457 80.3015 228.457C81.3386 228.457 82.1296 228.938 82.8972 229.605L84.0222 228.17C83.0905 227.35 81.9128 226.635 80.2077 226.635C76.8737 226.635 73.9206 229.154 73.9206 233.496C73.9206 237.814 76.5866 240.311 80.0378 240.311ZM91.6075 240.311C94.8008 240.311 97.6544 237.814 97.6544 233.496C97.6544 229.154 94.8008 226.635 91.6075 226.635C88.4141 226.635 85.5606 229.154 85.5606 233.496C85.5606 237.814 88.4141 240.311 91.6075 240.311ZM91.6075 238.488C89.3516 238.488 87.8399 236.496 87.8399 233.496C87.8399 230.496 89.3516 228.457 91.6075 228.457C93.8633 228.457 95.3985 230.496 95.3985 233.496C95.3985 236.496 93.8633 238.488 91.6075 238.488ZM103.392 240.311C103.989 240.311 104.353 240.24 104.663 240.117L104.353 238.441C104.112 238.488 104.019 238.488 103.896 238.488C103.562 238.488 103.275 238.225 103.275 237.551L103.275 220.898L101.089 220.898L101.089 237.41C101.089 239.256 101.763 240.311 103.392 240.311ZM112.991 240.311C116.185 240.311 119.038 237.814 119.038 233.496C119.038 229.154 116.185 226.635 112.991 226.635C109.798 226.635 106.945 229.154 106.945 233.496C106.945 237.814 109.798 240.311 112.991 240.311ZM112.991 238.488C110.736 238.488 109.224 236.496 109.224 233.496C109.224 230.496 110.736 228.457 112.991 228.457C115.247 228.457 116.783 230.496 116.783 233.496C116.783 236.496 115.247 238.488 112.991 238.488ZM122.473 240L124.659 240L124.659 231.621C125.52 229.395 126.862 228.621 127.946 228.621C128.473 228.621 128.784 228.674 129.217 228.838L129.621 226.922C129.217 226.705 128.807 226.635 128.233 226.635C126.768 226.635 125.45 227.689 124.535 229.342L124.465 229.342L124.272 226.969L122.473 226.969L122.473 240ZM129.887 243.357L142.654 243.357L142.654 241.898L129.887 241.898L129.887 243.357ZM149.666 240.311C153.07 240.311 155.138 237.117 155.138 231.387C155.138 225.674 153.07 222.574 149.666 222.574C146.256 222.574 144.17 225.65 144.17 231.387C144.17 237.117 146.256 240.311 149.666 240.311ZM149.666 238.559C147.65 238.559 146.303 236.402 146.303 231.387C146.303 226.365 147.65 224.326 149.666 224.326C151.658 224.326 153 226.365 153 231.387C153 236.402 151.658 238.559 149.666 238.559ZM157.367 240L168.429 240L168.429 238.102L163.466 238.102C162.552 238.102 161.498 238.201 160.583 238.271C164.638 234 167.568 230.807 167.568 227.59C167.568 224.566 165.599 222.574 162.458 222.574C160.226 222.574 158.714 223.605 157.273 225.17L158.544 226.395C159.505 225.264 160.753 224.35 162.195 224.35C164.375 224.35 165.429 225.744 165.429 227.689C165.429 230.496 162.529 233.566 157.367 238.705L157.367 240Z" fill="rgb(0,0,0)" fill-opacity="0.498039216" fill-rule="nonzero" />
		<path id="" d="M2.42578 295L3.83789 295L4.51172 289.527L8.0625 289.527L7.41797 295L8.85352 295L9.50391 289.527L11.9766 289.527L11.9766 287.992L9.69727 287.992L10.2012 284.008L12.5273 284.008L12.5273 282.496L10.3652 282.496L10.9922 277.551L9.57422 277.551L8.92969 282.496L5.37891 282.496L5.97656 277.551L4.55859 277.551L3.9375 282.496L1.48828 282.496L1.48828 284.008L3.76758 284.008L3.26367 287.992L0.960938 287.992L0.960938 289.527L3.07031 289.527L2.42578 295ZM4.70508 287.992L5.18555 284.008L8.75977 284.008L8.25586 287.992L4.70508 287.992ZM16.0798 288.52L20.0876 282.643C20.5915 281.799 21.072 281.055 21.5055 280.24L21.5993 280.24C21.5524 281.154 21.4821 282.613 21.4821 283.504L21.4821 288.52L16.0798 288.52ZM21.4821 295L23.5446 295L23.5446 290.271L25.8708 290.271L25.8708 288.52L23.5446 288.52L23.5446 277.891L21.1188 277.891L13.8005 288.83L13.8005 290.271L21.4821 290.271L21.4821 295ZM33.6478 286.193C35.7572 286.193 36.8177 287.605 36.8177 289.814C36.8177 292.094 35.5228 293.605 33.8177 293.605C31.6556 293.605 30.3373 291.807 30.0502 288.473C31.1986 286.791 32.5462 286.193 33.6478 286.193ZM33.8412 295.311C36.5775 295.311 38.8802 293.102 38.8802 289.814C38.8802 286.334 36.9584 284.559 34.0052 284.559C32.6166 284.559 31.1048 285.379 29.9974 286.697C30.097 281.248 32.1127 279.402 34.5384 279.402C35.5931 279.402 36.6478 279.906 37.3451 280.744L38.5697 279.379C37.6087 278.342 36.2904 277.574 34.4623 277.574C31.0345 277.574 27.9349 280.217 27.9349 287.102C27.9349 292.574 30.4545 295.311 33.8412 295.311ZM42.3623 295L47.9756 295C51.9131 295 54.6495 293.295 54.6495 289.838C54.6495 287.441 53.1612 286.047 51.0694 285.643L51.0694 285.52C52.7041 284.992 53.6416 283.457 53.6416 281.705C53.6416 278.605 51.169 277.387 47.5948 277.387L42.3623 277.387L42.3623 295ZM44.5948 284.898L44.5948 279.162L47.3018 279.162C50.0381 279.162 51.4561 279.93 51.4561 281.992C51.4561 283.768 50.2315 284.898 47.208 284.898L44.5948 284.898ZM44.5948 293.225L44.5948 286.574L47.6651 286.574C50.7354 286.574 52.4639 287.582 52.4639 289.768C52.4639 292.146 50.6885 293.225 47.6651 293.225L44.5948 293.225ZM57.8374 295L67.4878 295L67.4878 293.178L63.9604 293.178L63.9604 277.891L62.2788 277.891C61.3178 278.465 60.1928 278.869 58.6343 279.139L58.6343 280.551L61.7514 280.551L61.7514 293.178L57.8374 293.178L57.8374 295ZM71.4503 295L81.8625 295L81.8625 293.102L73.6828 293.102L73.6828 286.697L80.3507 286.697L80.3507 284.799L73.6828 284.799L73.6828 279.279L81.5988 279.279L81.5988 277.387L71.4503 277.387L71.4503 295ZM89.494 295.311C92.617 295.311 95.1366 293.488 95.1366 290.441C95.1366 288.086 93.4784 286.574 91.4159 286.07L91.4159 285.977C93.2616 285.303 94.5389 283.984 94.5389 281.922C94.5389 279.139 92.3768 277.574 89.4237 277.574C87.3846 277.574 85.826 278.465 84.5018 279.713L85.6795 281.078C86.6639 280.07 87.912 279.35 89.3299 279.35C91.1522 279.35 92.3065 280.41 92.3065 282.062C92.3065 283.861 91.0584 285.279 87.4315 285.279L87.4315 286.961C91.4862 286.961 92.9041 288.303 92.9041 290.342C92.9041 292.264 91.4159 293.488 89.3299 293.488C87.3377 293.488 85.9901 292.551 84.9588 291.473L83.8573 292.914C85.0057 294.162 86.7342 295.311 89.494 295.311ZM103.965 295L113.616 295L113.616 293.178L110.088 293.178L110.088 277.891L108.407 277.891C107.446 278.465 106.321 278.869 104.762 279.139L104.762 280.551L107.879 280.551L107.879 293.178L103.965 293.178L103.965 295ZM121.85 295.311C125.254 295.311 127.322 292.117 127.322 286.387C127.322 280.674 125.254 277.574 121.85 277.574C118.44 277.574 116.354 280.65 116.354 286.387C116.354 292.117 118.44 295.311 121.85 295.311ZM121.85 293.559C119.834 293.559 118.487 291.402 118.487 286.387C118.487 281.365 119.834 279.326 121.85 279.326C123.842 279.326 125.184 281.365 125.184 286.387C125.184 291.402 123.842 293.559 121.85 293.559ZM135.17 295.311C138.574 295.311 140.642 292.117 140.642 286.387C140.642 280.674 138.574 277.574 135.17 277.574C131.76 277.574 129.674 280.65 129.674 286.387C129.674 292.117 131.76 295.311 135.17 295.311ZM135.17 293.559C133.154 293.559 131.807 291.402 131.807 286.387C131.807 281.365 133.154 279.326 135.17 279.326C137.162 279.326 138.504 281.365 138.504 286.387C138.504 291.402 137.162 293.559 135.17 293.559ZM146.738 288.186C149.158 288.186 150.746 286.146 150.746 282.59C150.746 279.062 149.158 277.07 146.738 277.07C144.336 277.07 142.754 279.062 142.754 282.59C142.754 286.146 144.336 288.186 146.738 288.186ZM146.738 286.814C145.367 286.814 144.406 285.402 144.406 282.59C144.406 279.783 145.367 278.418 146.738 278.418C148.127 278.418 149.087 279.783 149.087 282.59C149.087 285.402 148.127 286.814 146.738 286.814ZM147.265 295.311L148.73 295.311L158.451 277.07L156.962 277.07L147.265 295.311ZM159.002 295.311C161.398 295.311 162.986 293.295 162.986 289.744C162.986 286.217 161.398 284.225 159.002 284.225C156.599 284.225 154.994 286.217 154.994 289.744C154.994 293.295 156.599 295.311 159.002 295.311ZM159.002 293.969C157.607 293.969 156.67 292.551 156.67 289.744C156.67 286.938 157.607 285.566 159.002 285.566C160.367 285.566 161.328 286.938 161.328 289.744C161.328 292.551 160.367 293.969 159.002 293.969Z" fill="rgb(0,0,0)" fill-opacity="0.498039216" fill-rule="nonzero" />
	</g>
</svg>
